<?xml version="1.0" encoding="UTF-8"?><svg id="Calque_2" xmlns="http://www.w3.org/2000/svg" viewBox="0 0 358.31 95.48"><defs><style>.cls-1{font-family:Poppins-ExtraBold, Poppins;font-size:24.23px;font-weight:700;}.cls-1,.cls-2{fill:#f2e8df;}.cls-2{stroke-width:0px;}</style></defs><g id="PRINT"><g id="CUSTOM-Group"><path class="cls-2" d="M354.81,25.33h-97.41c-1.93,0-3.5-1.57-3.5-3.5s1.57-3.5,3.5-3.5h97.41c1.93,0,3.5,1.57,3.5,3.5s-1.57,3.5-3.5,3.5Z"/><path class="cls-2" d="M139.28,25.33H3.9c-1.93,0-3.5-1.57-3.5-3.5s1.57-3.5,3.5-3.5h135.38c1.93,0,3.5,1.57,3.5,3.5s-1.57,3.5-3.5,3.5Z"/><path class="cls-2" d="M354.81,81.06h-148.29c-1.93,0-3.5-1.57-3.5-3.5s1.57-3.5,3.5-3.5h148.29c1.93,0,3.5,1.57,3.5,3.5s-1.57,3.5-3.5,3.5Z"/><path class="cls-2" d="M106.49,81.06H3.9c-1.93,0-3.5-1.57-3.5-3.5s1.57-3.5,3.5-3.5h102.59c1.93,0,3.5,1.57,3.5,3.5s-1.57,3.5-3.5,3.5Z"/></g><path id="CUSTOM" class="cls-2" d="M237.39,18.62c-6.14-6.14-14.4-8.86-22.42-8.17l4.78-4.78c2.99-3.22-1.47-7.67-4.68-4.68l-15.43,15.43c-11.09-8.77-27.24-8.04-37.48,2.2-1.29,1.29-1.29,3.39,0,4.68,6.14,6.14,14.4,8.86,22.43,8.17l-7.77,7.77c-4.55-2.77-10.34-2.71-14.83.17-9.58-6.28-22.59,1.53-21.51,12.95-11.42-1.08-19.23,11.93-12.95,21.51-7.95,12.7,6.66,27.29,19.34,19.34,9.58,6.28,22.58-1.54,21.51-12.95,11.42,1.08,19.23-11.93,12.95-21.51,2.89-4.5,2.95-10.28.17-14.83l7.77-7.77c-.69,8.02,2.03,16.28,8.17,22.42,1.29,1.29,3.39,1.29,4.68,0,7.64-7.64,9.99-18.56,7.05-28.22,9.66,2.94,20.59.59,28.22-7.05,1.29-1.29,1.29-3.39,0-4.68h0ZM134.09,61.1c2.19-2.19,5.41-2.71,8.09-1.58-1.37,2.46-1.94,5.24-1.71,7.96-2.73-.23-5.5.34-7.96,1.71-1.14-2.68-.61-5.9,1.58-8.09h0ZM144.52,86.65c-2.88,2.88-7.55,2.88-10.43,0-6.66-7.17,3.27-17.09,10.43-10.43,2.88,2.88,2.88,7.55,0,10.43ZM149.2,45.98c2.19-2.19,5.41-2.71,8.09-1.58-1.37,2.46-1.94,5.24-1.71,7.96-2.73-.23-5.5.34-7.96,1.71-1.14-2.68-.61-5.9,1.58-8.09h0ZM159.64,86.65c-2.19,2.19-5.41,2.71-8.09,1.58,1.36-2.46,1.93-5.23,1.71-7.96,2.73.23,5.51-.34,7.96-1.71,1.13,2.68.61,5.9-1.58,8.09h0ZM159.63,71.53c-2.88,2.88-7.55,2.88-10.43,0-6.66-7.17,3.27-17.09,10.43-10.43,2.88,2.88,2.88,7.55,0,10.43ZM174.75,71.53c-2.19,2.19-5.41,2.71-8.09,1.58,1.36-2.46,1.93-5.23,1.71-7.96,2.73.23,5.51-.34,7.96-1.71,1.13,2.68.61,5.9-1.58,8.09h0ZM174.75,56.42c-2.88,2.88-7.55,2.88-10.43,0-6.66-7.17,3.27-17.09,10.43-10.43,2.88,2.88,2.88,7.55,0,10.43ZM169.61,20.97c7.48-5.32,17.57-5.32,25.05,0-7.48,5.32-17.57,5.32-25.05,0ZM199.77,51.13c-5.32-7.48-5.32-17.57,0-25.05,5.32,7.48,5.32,17.57,0,25.05ZM204.88,20.97c7.48-5.32,17.57-5.32,25.05,0-7.48,5.32-17.57,5.32-25.05,0h0Z"/><text class="cls-1" transform="translate(254.61 57.26)"><tspan x="0" y="0">DU CAFÉ</tspan></text><text class="cls-1" transform="translate(0 57.04)"><tspan x="0" y="0">ON VEND</tspan></text></g></svg>